# xmcd
#
# Track frame offsets:
#	150
#	22016
#	40131
#	61697
#	72218
#
# Disc length: 1301 seconds
#
# Revision: 1
# Processed by: cddbd v1.5.1PL0 Copyright (c) Steve Scherf et al.
# Submitted via: CDex 1.50Beta5
#
DISCID=3a051305
DTITLE=韻シスト - Hereee we go
DYEAR=2003
DGENRE=Hop
TTITLE0=真夜中のカーニバル
TTITLE1=SHURE SHOT
TTITLE2=Hereee we go
TTITLE3=独
TTITLE4=My style your style is...
EXTD=
EXTT0=
EXTT1=
EXTT2=
EXTT3=
EXTT4=
PLAYORDER=
